<mxfile host="app.diagrams.net" modified="2023-05-16T08:12:42.070Z" agent="Mozilla/5.0 (Macintosh; Intel Mac OS X 10_15_7) AppleWebKit/605.1.15 (KHTML, like Gecko) Version/15.5 Safari/605.1.15" version="21.3.2" etag="Hv94ImLcw5QJxSfvOxpX" type="github">
  <diagram name="페이지-1" id="HuXOyn2JAHUjAnZJGGwj">
    <mxGraphModel>
      <root>
        <mxCell id="0" />
        <mxCell id="1" parent="0" />
      </root>
    </mxGraphModel>
  </diagram>
</mxfile>
